<svg id="visual" viewBox="0 0 900 675" width="900" height="675" xmlns="http://www.w3.org/2000/svg" xmlns:xlink="http://www.w3.org/1999/xlink" version="1.1"><rect x="0" y="0" width="900" height="675" fill="#001220"></rect><defs><linearGradient id="grad1_0" x1="25%" y1="0%" x2="100%" y2="100%"><stop offset="23.333333333333336%" stop-color="#fbae3c" stop-opacity="1"></stop><stop offset="76.66666666666666%" stop-color="#fbae3c" stop-opacity="1"></stop></linearGradient></defs><defs><linearGradient id="grad1_1" x1="25%" y1="0%" x2="100%" y2="100%"><stop offset="23.333333333333336%" stop-color="#fbae3c" stop-opacity="1"></stop><stop offset="76.66666666666666%" stop-color="#96446e" stop-opacity="1"></stop></linearGradient></defs><defs><linearGradient id="grad1_2" x1="25%" y1="0%" x2="100%" y2="100%"><stop offset="23.333333333333336%" stop-color="#001220" stop-opacity="1"></stop><stop offset="76.66666666666666%" stop-color="#96446e" stop-opacity="1"></stop></linearGradient></defs><defs><linearGradient id="grad2_0" x1="0%" y1="0%" x2="75%" y2="100%"><stop offset="23.333333333333336%" stop-color="#fbae3c" stop-opacity="1"></stop><stop offset="76.66666666666666%" stop-color="#fbae3c" stop-opacity="1"></stop></linearGradient></defs><defs><linearGradient id="grad2_1" x1="0%" y1="0%" x2="75%" y2="100%"><stop offset="23.333333333333336%" stop-color="#96446e" stop-opacity="1"></stop><stop offset="76.66666666666666%" stop-color="#fbae3c" stop-opacity="1"></stop></linearGradient></defs><defs><linearGradient id="grad2_2" x1="0%" y1="0%" x2="75%" y2="100%"><stop offset="23.333333333333336%" stop-color="#96446e" stop-opacity="1"></stop><stop offset="76.66666666666666%" stop-color="#001220" stop-opacity="1"></stop></linearGradient></defs><g transform="translate(900, 0)"><path d="M0 337.5C-27 339.7 -53.9 341.9 -75.1 329C-96.3 316.2 -111.6 288.2 -131.5 273C-151.4 257.8 -175.8 255.4 -193.9 243.1C-212 230.9 -223.8 208.9 -238.5 190.2C-253.1 171.4 -270.6 156 -284.7 137.1C-298.8 118.2 -309.6 96 -317.8 72.5C-326.1 49.1 -331.8 24.6 -337.5 0L0 0Z" fill="#3d3056"></path><path d="M0 225C-18 226.5 -36 227.9 -50.1 219.4C-64.2 210.8 -74.4 192.1 -87.6 182C-100.9 171.9 -117.2 170.2 -129.3 162.1C-141.3 154 -149.2 139.3 -159 126.8C-168.7 114.3 -180.4 104 -189.8 91.4C-199.2 78.8 -206.4 64 -211.9 48.4C-217.4 32.7 -221.2 16.4 -225 0L0 0Z" fill="#e1685e"></path><path d="M0 112.5C-9 113.2 -18 114 -25 109.7C-32.1 105.4 -37.2 96.1 -43.8 91C-50.5 85.9 -58.6 85.1 -64.6 81C-70.7 77 -74.6 69.6 -79.5 63.4C-84.4 57.1 -90.2 52 -94.9 45.7C-99.6 39.4 -103.2 32 -105.9 24.2C-108.7 16.4 -110.6 8.2 -112.5 0L0 0Z" fill="#fbae3c"></path></g><g transform="translate(0, 675)"><path d="M0 -337.5C21.1 -320.5 42.3 -303.4 69 -302.2C95.7 -301 127.9 -315.6 146.4 -304.1C165 -292.6 169.9 -254.9 188.9 -236.9C207.9 -218.8 241.1 -220.4 258.8 -206.4C276.5 -192.4 278.6 -162.9 288.3 -138.8C298 -114.8 315.2 -96.3 324.7 -74.1C334.1 -51.9 335.8 -25.9 337.5 0L0 0Z" fill="#3d3056"></path><path d="M0 -225C14.1 -213.6 28.2 -202.3 46 -201.5C63.8 -200.7 85.3 -210.4 97.6 -202.7C110 -195 113.3 -170 125.9 -157.9C138.6 -145.9 160.7 -146.9 172.5 -137.6C184.3 -128.3 185.7 -108.6 192.2 -92.6C198.7 -76.6 210.1 -64.2 216.4 -49.4C222.7 -34.6 223.9 -17.3 225 0L0 0Z" fill="#e1685e"></path><path d="M0 -112.5C7 -106.8 14.1 -101.1 23 -100.7C31.9 -100.3 42.6 -105.2 48.8 -101.4C55 -97.5 56.6 -85 63 -79C69.3 -72.9 80.4 -73.5 86.3 -68.8C92.2 -64.1 92.9 -54.3 96.1 -46.3C99.3 -38.3 105.1 -32.1 108.2 -24.7C111.4 -17.3 111.9 -8.6 112.5 0L0 0Z" fill="#fbae3c"></path></g></svg>