<svg id="visual" viewBox="0 0 900 675" width="900" height="675" xmlns="http://www.w3.org/2000/svg" xmlns:xlink="http://www.w3.org/1999/xlink" version="1.1"><path d="M0 487L21.5 477.7C43 468.3 86 449.7 128.8 437.7C171.7 425.7 214.3 420.3 257.2 429.5C300 438.7 343 462.3 385.8 474C428.7 485.7 471.3 485.3 514.2 478.5C557 471.7 600 458.3 642.8 448.5C685.7 438.7 728.3 432.3 771.2 438.7C814 445 857 464 878.5 473.5L900 483L900 676L878.5 676C857 676 814 676 771.2 676C728.3 676 685.7 676 642.8 676C600 676 557 676 514.2 676C471.3 676 428.7 676 385.8 676C343 676 300 676 257.2 676C214.3 676 171.7 676 128.8 676C86 676 43 676 21.5 676L0 676Z" fill="#fa7268"></path><path d="M0 489L21.5 488.3C43 487.7 86 486.3 128.8 482.5C171.7 478.7 214.3 472.3 257.2 468.2C300 464 343 462 385.8 460.5C428.7 459 471.3 458 514.2 470.7C557 483.3 600 509.7 642.8 511.5C685.7 513.3 728.3 490.7 771.2 477.7C814 464.7 857 461.3 878.5 459.7L900 458L900 676L878.5 676C857 676 814 676 771.2 676C728.3 676 685.7 676 642.8 676C600 676 557 676 514.2 676C471.3 676 428.7 676 385.8 676C343 676 300 676 257.2 676C214.3 676 171.7 676 128.8 676C86 676 43 676 21.5 676L0 676Z" fill="#ef5f67"></path><path d="M0 563L21.5 557.3C43 551.7 86 540.3 128.8 535C171.7 529.7 214.3 530.3 257.2 530C300 529.7 343 528.3 385.8 524.7C428.7 521 471.3 515 514.2 512.7C557 510.3 600 511.7 642.8 521.8C685.7 532 728.3 551 771.2 553.3C814 555.7 857 541.3 878.5 534.2L900 527L900 676L878.5 676C857 676 814 676 771.2 676C728.3 676 685.7 676 642.8 676C600 676 557 676 514.2 676C471.3 676 428.7 676 385.8 676C343 676 300 676 257.2 676C214.3 676 171.7 676 128.8 676C86 676 43 676 21.5 676L0 676Z" fill="#e34c67"></path><path d="M0 601L21.5 601C43 601 86 601 128.8 592.2C171.7 583.3 214.3 565.7 257.2 562.8C300 560 343 572 385.8 577.3C428.7 582.7 471.3 581.3 514.2 580.3C557 579.3 600 578.7 642.8 573.2C685.7 567.7 728.3 557.3 771.2 562.5C814 567.7 857 588.3 878.5 598.7L900 609L900 676L878.5 676C857 676 814 676 771.2 676C728.3 676 685.7 676 642.8 676C600 676 557 676 514.2 676C471.3 676 428.7 676 385.8 676C343 676 300 676 257.2 676C214.3 676 171.7 676 128.8 676C86 676 43 676 21.5 676L0 676Z" fill="#d53867"></path><path d="M0 639L21.5 637.5C43 636 86 633 128.8 629.5C171.7 626 214.3 622 257.2 615.8C300 609.7 343 601.3 385.8 599C428.7 596.7 471.3 600.3 514.2 608.2C557 616 600 628 642.8 626.7C685.7 625.3 728.3 610.7 771.2 606.8C814 603 857 610 878.5 613.5L900 617L900 676L878.5 676C857 676 814 676 771.2 676C728.3 676 685.7 676 642.8 676C600 676 557 676 514.2 676C471.3 676 428.7 676 385.8 676C343 676 300 676 257.2 676C214.3 676 171.7 676 128.8 676C86 676 43 676 21.5 676L0 676Z" fill="#c62368"></path></svg>