<svg id="visual" viewBox="0 0 1920 1080" width="1920" height="1080" xmlns="http://www.w3.org/2000/svg" xmlns:xlink="http://www.w3.org/1999/xlink" version="1.1"><path d="M0 779L45.7 764.2C91.3 749.3 182.7 719.7 274.2 700.5C365.7 681.3 457.3 672.7 548.8 687.3C640.3 702 731.7 740 823 758.7C914.3 777.3 1005.7 776.7 1097 765.8C1188.3 755 1279.7 734 1371.2 718.3C1462.7 702.7 1554.3 692.3 1645.8 702.5C1737.3 712.7 1828.7 743.3 1874.3 758.7L1920 774L1920 1081L1874.3 1081C1828.7 1081 1737.3 1081 1645.8 1081C1554.3 1081 1462.7 1081 1371.2 1081C1279.7 1081 1188.3 1081 1097 1081C1005.7 1081 914.3 1081 823 1081C731.7 1081 640.3 1081 548.8 1081C457.3 1081 365.7 1081 274.2 1081C182.7 1081 91.3 1081 45.7 1081L0 1081Z" fill="#fa7268"></path><path d="M0 784L45.7 782.8C91.3 781.7 182.7 779.3 274.2 773C365.7 766.7 457.3 756.3 548.8 749.5C640.3 742.7 731.7 739.3 823 737C914.3 734.7 1005.7 733.3 1097 753.7C1188.3 774 1279.7 816 1371.2 818.8C1462.7 821.7 1554.3 785.3 1645.8 764.5C1737.3 743.7 1828.7 738.3 1874.3 735.7L1920 733L1920 1081L1874.3 1081C1828.7 1081 1737.3 1081 1645.8 1081C1554.3 1081 1462.7 1081 1371.2 1081C1279.7 1081 1188.3 1081 1097 1081C1005.7 1081 914.3 1081 823 1081C731.7 1081 640.3 1081 548.8 1081C457.3 1081 365.7 1081 274.2 1081C182.7 1081 91.3 1081 45.7 1081L0 1081Z" fill="#ef5f67"></path><path d="M0 901L45.7 892C91.3 883 182.7 865 274.2 856.7C365.7 848.3 457.3 849.7 548.8 849.2C640.3 848.7 731.7 846.3 823 840.3C914.3 834.3 1005.7 824.7 1097 821C1188.3 817.3 1279.7 819.7 1371.2 835.8C1462.7 852 1554.3 882 1645.8 885.7C1737.3 889.3 1828.7 866.7 1874.3 855.3L1920 844L1920 1081L1874.3 1081C1828.7 1081 1737.3 1081 1645.8 1081C1554.3 1081 1462.7 1081 1371.2 1081C1279.7 1081 1188.3 1081 1097 1081C1005.7 1081 914.3 1081 823 1081C731.7 1081 640.3 1081 548.8 1081C457.3 1081 365.7 1081 274.2 1081C182.7 1081 91.3 1081 45.7 1081L0 1081Z" fill="#e34c67"></path><path d="M0 961L45.7 961.3C91.3 961.7 182.7 962.3 274.2 948.3C365.7 934.3 457.3 905.7 548.8 900.8C640.3 896 731.7 915 823 923.5C914.3 932 1005.7 930 1097 928.5C1188.3 927 1279.7 926 1371.2 917.5C1462.7 909 1554.3 893 1645.8 901.3C1737.3 909.7 1828.7 942.3 1874.3 958.7L1920 975L1920 1081L1874.3 1081C1828.7 1081 1737.3 1081 1645.8 1081C1554.3 1081 1462.7 1081 1371.2 1081C1279.7 1081 1188.3 1081 1097 1081C1005.7 1081 914.3 1081 823 1081C731.7 1081 640.3 1081 548.8 1081C457.3 1081 365.7 1081 274.2 1081C182.7 1081 91.3 1081 45.7 1081L0 1081Z" fill="#d53867"></path><path d="M0 1023L45.7 1020.7C91.3 1018.3 182.7 1013.7 274.2 1008C365.7 1002.3 457.3 995.7 548.8 985.8C640.3 976 731.7 963 823 959.3C914.3 955.7 1005.7 961.3 1097 973.8C1188.3 986.3 1279.7 1005.7 1371.2 1003.5C1462.7 1001.3 1554.3 977.7 1645.8 971.5C1737.3 965.3 1828.7 976.7 1874.3 982.3L1920 988L1920 1081L1874.3 1081C1828.7 1081 1737.3 1081 1645.8 1081C1554.3 1081 1462.7 1081 1371.2 1081C1279.7 1081 1188.3 1081 1097 1081C1005.7 1081 914.3 1081 823 1081C731.7 1081 640.3 1081 548.8 1081C457.3 1081 365.7 1081 274.2 1081C182.7 1081 91.3 1081 45.7 1081L0 1081Z" fill="#c62368"></path></svg>